<svg xmlns="http://www.w3.org/2000/svg" viewBox="0 0 1200 620" role="img" aria-labelledby="title desc">
  <title id="title">SciTriage README banner</title>
  <desc id="desc">SciTriage adds evidence gates to AutoResearch agents. Agent claims enter the gate, invalid wins are blocked, and trustworthy evidence is kept.</desc>
  <defs>
    <linearGradient id="bg" x1="0" x2="1" y1="0" y2="1">
      <stop offset="0" stop-color="#0f172a"/>
      <stop offset="0.54" stop-color="#123b55"/>
      <stop offset="1" stop-color="#14532d"/>
    </linearGradient>
    <linearGradient id="accent" x1="0" x2="1" y1="0" y2="1">
      <stop offset="0" stop-color="#22c55e"/>
      <stop offset="1" stop-color="#38bdf8"/>
    </linearGradient>
    <filter id="shadow" x="-20%" y="-20%" width="140%" height="150%">
      <feDropShadow dx="0" dy="14" stdDeviation="16" flood-color="#020617" flood-opacity="0.22"/>
    </filter>
  </defs>

  <rect width="1200" height="620" rx="44" fill="#f8fafc"/>
  <rect x="34" y="34" width="1132" height="552" rx="34" fill="url(#bg)"/>

  <g transform="translate(82 72)">
    <rect x="0" y="0" width="116" height="116" rx="28" fill="#f8fafc"/>
    <path d="M28 58h26" stroke="#64748b" stroke-width="10" stroke-linecap="round"/>
    <path d="M64 29v58" stroke="url(#accent)" stroke-width="12" stroke-linecap="round"/>
    <path d="M64 29l34 29-34 29" fill="none" stroke="url(#accent)" stroke-width="12" stroke-linecap="round" stroke-linejoin="round"/>
    <circle cx="28" cy="58" r="9" fill="#f59e0b"/>
    <circle cx="98" cy="58" r="9" fill="#22c55e"/>
  </g>

  <g transform="translate(226 75)">
    <text x="0" y="54" fill="#ffffff" font-family="Inter, Segoe UI, Arial, sans-serif" font-size="62" font-weight="850">SciTriage</text>
    <text x="2" y="96" fill="#dbeafe" font-family="Inter, Segoe UI, Arial, sans-serif" font-size="25" font-weight="560">Evidence gates for AutoResearch agents</text>
    <text x="2" y="131" fill="#a7f3d0" font-family="Inter, Segoe UI, Arial, sans-serif" font-size="20" font-weight="600">Stop fake wins. Keep real progress.</text>
  </g>

  <g transform="translate(86 248)" filter="url(#shadow)">
    <rect x="0" y="0" width="300" height="190" rx="22" fill="#ffffff"/>
    <rect x="24" y="26" width="58" height="58" rx="16" fill="#e0f2fe"/>
    <path d="M41 55h25" stroke="#0284c7" stroke-width="7" stroke-linecap="round"/>
    <path d="M61 42l18 13-18 13" fill="none" stroke="#0284c7" stroke-width="7" stroke-linecap="round" stroke-linejoin="round"/>
    <text x="100" y="55" fill="#0f172a" font-family="Inter, Segoe UI, Arial, sans-serif" font-size="26" font-weight="820">Agent output</text>
    <text x="24" y="112" fill="#475569" font-family="Inter, Segoe UI, Arial, sans-serif" font-size="18">idea, patch, metric</text>
    <text x="24" y="145" fill="#ef4444" font-family="Inter, Segoe UI, Arial, sans-serif" font-size="19" font-weight="780">"This looks better"</text>
  </g>

  <path d="M412 343h76" stroke="#93c5fd" stroke-width="10" stroke-linecap="round"/>
  <path d="M473 318l32 25-32 25" fill="none" stroke="#93c5fd" stroke-width="10" stroke-linecap="round" stroke-linejoin="round"/>

  <g transform="translate(520 222)" filter="url(#shadow)">
    <rect x="0" y="0" width="320" height="242" rx="26" fill="#ecfeff"/>
    <rect x="28" y="26" width="264" height="58" rx="17" fill="url(#accent)"/>
    <text x="55" y="64" fill="#ffffff" font-family="Inter, Segoe UI, Arial, sans-serif" font-size="25" font-weight="850">SciTriage gate</text>
    <g fill="#0f172a" font-family="Inter, Segoe UI, Arial, sans-serif" font-size="18" font-weight="620">
      <text x="34" y="123">1. semantic invariant</text>
      <text x="34" y="158">2. leakage check</text>
      <text x="34" y="193">3. seed-noise margin</text>
    </g>
    <g fill="#0f766e" font-family="Inter, Segoe UI, Arial, sans-serif" font-size="16" font-weight="700">
      <text x="224" y="123">verify</text>
      <text x="224" y="158">detect</text>
      <text x="224" y="193">retest</text>
    </g>
  </g>

  <path d="M866 343h76" stroke="#93c5fd" stroke-width="10" stroke-linecap="round"/>
  <path d="M927 318l32 25-32 25" fill="none" stroke="#93c5fd" stroke-width="10" stroke-linecap="round" stroke-linejoin="round"/>

  <g transform="translate(976 248)" filter="url(#shadow)">
    <rect x="0" y="0" width="158" height="190" rx="22" fill="#ffffff"/>
    <text x="25" y="50" fill="#0f172a" font-family="Inter, Segoe UI, Arial, sans-serif" font-size="25" font-weight="820">Decision</text>
    <rect x="24" y="76" width="110" height="34" rx="17" fill="#dcfce7"/>
    <text x="47" y="99" fill="#15803d" font-family="Inter, Segoe UI, Arial, sans-serif" font-size="17" font-weight="820">allow</text>
    <rect x="24" y="123" width="110" height="34" rx="17" fill="#fee2e2"/>
    <text x="49" y="146" fill="#dc2626" font-family="Inter, Segoe UI, Arial, sans-serif" font-size="17" font-weight="820">block</text>
  </g>

  <g transform="translate(86 506)" font-family="Inter, Segoe UI, Arial, sans-serif">
    <rect x="0" y="0" width="232" height="42" rx="21" fill="#ffffff" fill-opacity="0.14"/>
    <text x="22" y="27" fill="#ffffff" font-size="17" font-weight="760">4 MLAgentBench audits</text>
    <rect x="256" y="0" width="250" height="42" rx="21" fill="#ffffff" fill-opacity="0.14"/>
    <text x="278" y="27" fill="#ffffff" font-size="17" font-weight="760">0.750 -> 0.000 invalid</text>
    <rect x="530" y="0" width="206" height="42" rx="21" fill="#ffffff" fill-opacity="0.14"/>
    <text x="552" y="27" fill="#ffffff" font-size="17" font-weight="760">235x valid speedup</text>
    <rect x="760" y="0" width="252" height="42" rx="21" fill="#ffffff" fill-opacity="0.14"/>
    <text x="782" y="27" fill="#ffffff" font-size="17" font-weight="760">71.4% fewer seed runs</text>
  </g>
</svg>
