<svg xmlns="http://www.w3.org/2000/svg" viewBox="0 0 1200 520" role="img" aria-labelledby="title desc">
  <title id="title">SciTriage README banner</title>
  <desc id="desc">A simple visual showing an AutoResearch agent sending claims through SciTriage, which blocks invalid high scores and allows verified evidence.</desc>
  <defs>
    <linearGradient id="ink" x1="0" x2="1" y1="0" y2="1">
      <stop offset="0" stop-color="#0f172a"/>
      <stop offset="1" stop-color="#164e63"/>
    </linearGradient>
    <linearGradient id="gate" x1="0" x2="1" y1="0" y2="1">
      <stop offset="0" stop-color="#10b981"/>
      <stop offset="1" stop-color="#2563eb"/>
    </linearGradient>
    <filter id="shadow" x="-20%" y="-20%" width="140%" height="140%">
      <feDropShadow dx="0" dy="18" stdDeviation="18" flood-color="#0f172a" flood-opacity="0.18"/>
    </filter>
  </defs>

  <rect width="1200" height="520" rx="42" fill="#f8fafc"/>
  <rect x="36" y="36" width="1128" height="448" rx="34" fill="url(#ink)"/>

  <g transform="translate(84 74)">
    <rect x="0" y="0" width="126" height="126" rx="28" fill="#e2e8f0"/>
    <path d="M30 63h31" stroke="#64748b" stroke-width="10" stroke-linecap="round"/>
    <path d="M70 31v64" stroke="url(#gate)" stroke-width="12" stroke-linecap="round"/>
    <path d="M70 31l36 32-36 32" fill="none" stroke="url(#gate)" stroke-width="12" stroke-linecap="round" stroke-linejoin="round"/>
    <circle cx="30" cy="63" r="9" fill="#f59e0b"/>
    <circle cx="106" cy="63" r="9" fill="#22c55e"/>
  </g>

  <g transform="translate(245 78)">
    <text x="0" y="52" fill="#f8fafc" font-family="Inter, Segoe UI, Arial, sans-serif" font-size="64" font-weight="850">SciTriage</text>
    <text x="2" y="94" fill="#cbd5e1" font-family="Inter, Segoe UI, Arial, sans-serif" font-size="25" font-weight="520">Evidence gates for AutoResearch agents</text>
  </g>

  <g transform="translate(85 247)" filter="url(#shadow)">
    <rect x="0" y="0" width="260" height="152" rx="20" fill="#ffffff"/>
    <text x="24" y="42" fill="#0f172a" font-family="Inter, Segoe UI, Arial, sans-serif" font-size="24" font-weight="780">Agent output</text>
    <text x="24" y="78" fill="#475569" font-family="Inter, Segoe UI, Arial, sans-serif" font-size="19">idea + patch + logs</text>
    <text x="24" y="110" fill="#ef4444" font-family="Inter, Segoe UI, Arial, sans-serif" font-size="18" font-weight="700">"Looks like a win"</text>
  </g>

  <path d="M365 323h96" stroke="#93c5fd" stroke-width="10" stroke-linecap="round"/>
  <path d="M445 295l38 28-38 28" fill="none" stroke="#93c5fd" stroke-width="10" stroke-linecap="round" stroke-linejoin="round"/>

  <g transform="translate(505 214)" filter="url(#shadow)">
    <rect x="0" y="0" width="250" height="218" rx="24" fill="#ecfeff"/>
    <rect x="26" y="26" width="198" height="48" rx="14" fill="url(#gate)"/>
    <text x="45" y="58" fill="#ffffff" font-family="Inter, Segoe UI, Arial, sans-serif" font-size="22" font-weight="820">SciTriage gate</text>
    <text x="30" y="111" fill="#0f172a" font-family="Inter, Segoe UI, Arial, sans-serif" font-size="18">semantic invariant</text>
    <text x="30" y="144" fill="#0f172a" font-family="Inter, Segoe UI, Arial, sans-serif" font-size="18">label-leak check</text>
    <text x="30" y="177" fill="#0f172a" font-family="Inter, Segoe UI, Arial, sans-serif" font-size="18">seed-noise margin</text>
  </g>

  <path d="M776 323h96" stroke="#93c5fd" stroke-width="10" stroke-linecap="round"/>
  <path d="M856 295l38 28-38 28" fill="none" stroke="#93c5fd" stroke-width="10" stroke-linecap="round" stroke-linejoin="round"/>

  <g transform="translate(912 247)" filter="url(#shadow)">
    <rect x="0" y="0" width="205" height="152" rx="20" fill="#ffffff"/>
    <text x="24" y="42" fill="#0f172a" font-family="Inter, Segoe UI, Arial, sans-serif" font-size="24" font-weight="780">Decision</text>
    <text x="24" y="80" fill="#16a34a" font-family="Inter, Segoe UI, Arial, sans-serif" font-size="20" font-weight="780">allow evidence</text>
    <text x="24" y="113" fill="#dc2626" font-family="Inter, Segoe UI, Arial, sans-serif" font-size="20" font-weight="780">block fake wins</text>
  </g>

  <g transform="translate(85 432)">
    <text x="0" y="0" fill="#bfdbfe" font-family="Inter, Segoe UI, Arial, sans-serif" font-size="18" font-weight="620">MLAgentBench results:</text>
    <text x="188" y="0" fill="#ffffff" font-family="Inter, Segoe UI, Arial, sans-serif" font-size="18">3 external audits: invalid runtime shortcut, CIFAR label oracle, IMDB label oracle</text>
  </g>
</svg>
